<svg width="0" height="0" class="hidden">
  <symbol xmlns="http://www.w3.org/2000/svg" viewBox="0 0 40.988 40.988" id="assistance">
    <path d="M29.839 7.254a.256.256 0 00-.256.258.376.376 0 11-.752 0 .257.257 0 00-.26-.258.257.257 0 00-.258.258.895.895 0 001.788 0 .26.26 0 00-.262-.258zm-.271 3.373h-.723a.324.324 0 00-.324.325v.099l.146-.146a.102.102 0 01.146 0 .1.1 0 010 .144l-.289.289v.188l.385-.383a.102.102 0 01.143 0 .1.1 0 010 .143l-.525.525v.065a.31.31 0 00.021.104l.603-.603a.104.104 0 01.145 0 .102.102 0 010 .146l-.621.621a.33.33 0 00.184.059h.724c.18 0 .325-.146.325-.325v-.925a.349.349 0 00-.34-.326zm1.348 2.44V7.505a.292.292 0 00-.291-.291h-.262v6.144h.262a.295.295 0 00.291-.291zm1.625-.333h.504V7.689h-.504a.688.688 0 00-.686.687v3.674a.687.687 0 00.686.684zm4.195-.685V8.375c0-.687-.114-.687-.686-.687h-2.34v5.045h2.34c.563.001.686.001.686-.684z"></path>
    <path d="M36.96 40.295a.485.485 0 00-.076-.354l-7.15-10.42v-2.168a.896.896 0 00.664-.86.894.894 0 00-.664-.862V15.479h.703a.916.916 0 00.658-1.55.98.98 0 00.518-.862V7.505a.987.987 0 00-.987-.987h-.233l-.253-.447c-.002-.006-.007-.012-.009-.019-.086-.129-.261-.282-.614-.282h-.613c-.354 0-.531.153-.615.284l-.01.017-.25.447h-.236a.988.988 0 00-.988.987v5.562c0 .401.244.748.59.901a.916.916 0 00-.227.595c0 .506.41.916.916.916h.264l-3.354 3.81c-.303-.188-.643-.203-.811-.011l-1.238 1.41c-.199.226-.088.646.248.94l.07.062c.334.293.768.352.965.125l1.239-1.41c.168-.192.111-.528-.116-.805l3.434-3.903v9.935a.897.897 0 00-.664.862c0 .412.283.759.664.861v2.168l-7.148 10.42a.465.465 0 00-.076.353c-.713.043-1.235.179-1.235.34 0 .192.762.353 1.703.353.938 0 1.703-.156 1.703-.353 0-.157-.498-.291-1.188-.336l6.242-9.097v7.025c0 .08.021.152.057.221-.733.037-1.282.177-1.282.341 0 .194.764.353 1.7.353.941 0 1.703-.156 1.703-.353 0-.164-.545-.304-1.28-.341a.506.506 0 00.057-.221v-7.025l6.242 9.097c-.689.045-1.188.179-1.188.336 0 .192.763.353 1.703.353s1.703-.156 1.703-.353c-.006-.164-.528-.298-1.241-.341zm-9.171-26.756a.476.476 0 01-.475-.474V7.503c0-.263.213-.474.475-.474h.387c.096 0 .18-.051.227-.131l.316-.569c.021-.029.093-.048.181-.048h.613c.09 0 .156.019.182.048l.318.569c.047.08.133.131.225.131h.388c.263 0 .474.211.474.474v5.562c0 .26-.211.474-.474.474h-2.837z"></path>
    <path d="M24.445 35.441l1.023-1.472a.225.225 0 00-.369-.256l-1.023 1.474a.225.225 0 00.059.312c.101.071.24.044.31-.058zm8.594-1.47l1.021 1.473a.224.224 0 10.37-.254l-1.021-1.475a.224.224 0 00-.312-.056.224.224 0 00-.058.312zM12.343 22.99l3.793-7.348 5.782 2.954a1.763 1.763 0 101.602-3.143L17.162 12.2a4.928 4.928 0 00-9.302-2.025l-4.483 8.688a4.89 4.89 0 00-.545 2.189c-.023.142-.043.28-.043.429v16.81a2.693 2.693 0 005.385 0V27.162l4.434 11.533a2.696 2.696 0 003.48 1.551 2.694 2.694 0 001.547-3.482L12.343 22.99z"></path>
    <circle cx="17.171" cy="3.928" r="3.928"></circle>
  </symbol>
  <symbol xmlns="http://www.w3.org/2000/svg" viewBox="0 0 512 512" id="download">
    <path d="M409.785 278.5L256 432.285 102.215 278.5l28.285-28.285 105.5 105.5V0h40v355.715l105.5-105.5zM512 472H0v40h512zm0 0"></path>
  </symbol>
  <symbol xmlns="http://www.w3.org/2000/svg" viewBox="0 0 370.261 370.261" id="dvd-logo">
    <path d="M358.743 73.612H11.518C5.157 73.612 0 78.769 0 85.13v200c0 6.361 5.157 11.519 11.518 11.519h347.225c6.361 0 11.518-5.157 11.518-11.519v-200c0-6.361-5.157-11.518-11.518-11.518zM140.558 185.13c-7.604 26.611-32.658 45-61.586 45H41.181l16.987-59.459h22.878l-11.769 41.197h16.325c14.018 0 27.131-10.797 31.646-26.604 4.556-15.945-2.864-26.873-17.39-26.873H61.669l5.215-18.262h38.703c28.282.001 42.606 18.263 34.971 45.001zm186.486 0c-7.604 26.611-32.658 45-61.586 45h-37.791l16.987-59.459h22.878l-11.768 41.197h16.327c14.016 0 27.129-10.797 31.645-26.604 4.555-15.945-2.865-26.873-17.391-26.873h-54.584l-44.104 71.738h-23.656l-14.996-90h24.428l8.318 66.213 37.714-66.213h72.608c28.282.001 42.606 18.263 34.971 45.001z"></path>
  </symbol>
  <symbol xmlns="http://www.w3.org/2000/svg" viewBox="0 0 48.956 48.955" id="editing">
    <path d="M24.698 19.041l4.338 4.336-1.065 1.066-4.338-4.336 1.065-1.066zm8.128-4.772a2.368 2.368 0 00-3.354 0l-3.604 3.603 4.338 4.337 3.604-3.604a2.368 2.368 0 000-3.354l-.984-.982zM.696 43.043a2.368 2.368 0 000 3.354l.98.98a2.368 2.368 0 003.354 0l21.655-21.655-4.337-4.339L.696 43.043zm42.012-29.165l-.803 2.113-2.112.802 2.112.804.803 2.112.803-2.112 2.112-.804-2.112-.802-.803-2.113zm-6.75-9.16L34.503.883 33.05 4.718l-3.836 1.455 3.836 1.455 1.453 3.836 1.455-3.836 3.835-1.455-3.835-1.455zm10.731 2.138l-.857-2.267-.857 2.267-2.266.857 2.266.86.857 2.265.857-2.265 2.267-.86-2.267-.857z"></path>
  </symbol>
  <symbol xmlns="http://www.w3.org/2000/svg" viewBox="0 0 470.513 470.513" id="facebook">
    <path d="M271.521 154.17v-40.541c0-6.086.28-10.8.849-14.13.567-3.335 1.857-6.615 3.859-9.853 1.999-3.236 5.236-5.47 9.706-6.708 4.476-1.24 10.424-1.858 17.85-1.858h40.539V0h-64.809c-37.5 0-64.433 8.897-80.803 26.691-16.368 17.798-24.551 44.014-24.551 78.658v48.82h-48.542v81.086h48.539v235.256h97.362V235.256h64.805l8.566-81.086h-73.37z"></path>
  </symbol>
  <symbol aria-hidden="true" data-prefix="fab" data-icon="google-plus-g" xmlns="http://www.w3.org/2000/svg" viewBox="0 0 640 512" id="google-plus">
    <path  d="M386.061 228.496c1.834 9.692 3.143 19.384 3.143 31.956C389.204 370.205 315.599 448 204.8 448c-106.084 0-192-85.915-192-192s85.916-192 192-192c51.864 0 95.083 18.859 128.611 50.292l-52.126 50.03c-14.145-13.621-39.028-29.599-76.485-29.599-65.484 0-118.92 54.221-118.92 121.277 0 67.056 53.436 121.277 118.92 121.277 75.961 0 104.513-54.745 108.965-82.773H204.8v-66.009h181.261zm185.406 6.437V179.2h-56.001v55.733h-55.733v56.001h55.733v55.733h56.001v-55.733H627.2v-56.001h-55.733z"></path>
  </symbol>
  <symbol xmlns="http://www.w3.org/2000/svg" viewBox="0 0 506.161 506.161" id="handshake">
    <path d="M165.858 329.247c6.161-5.421 6.766-14.807 1.352-20.974l-.818-.939a14.755 14.755 0 00-10.195-4.98h-.989a14.76 14.76 0 00-9.79 3.693l-19.921 17.488-18.142 15.923c-6.143 5.428-6.744 14.799-1.345 20.967l.832.953c5.425 6.158 14.811 6.763 20.981 1.352l13.945-12.237z"></path>
    <path d="M118.026 369.9c-.413 0-.818 0-1.231-.036a18.292 18.292 0 01-12.643-6.218l-.84-.96c-6.678-7.643-5.931-19.245 1.672-25.969l38.078-33.439a18.495 18.495 0 0113.347-4.539 18.288 18.288 0 0112.643 6.218l1.167 1.359c6.366 7.663 5.477 19.001-2.006 25.577l-38.064 33.439a18.239 18.239 0 01-12.123 4.568zm37.167-64.032a11.306 11.306 0 00-7.442 2.846l-38.064 33.439c-4.669 4.132-5.123 11.259-1.017 15.951l.84.96c4.128 4.676 11.262 5.131 15.951 1.017l38.057-33.439c4.682-4.122 5.14-11.257 1.025-15.944l-.832-.96a11.196 11.196 0 00-7.748-3.806zm64.089 60.546a14.81 14.81 0 00-9.797 3.685l-19.644 17.246c-6.173 5.417-6.786 14.812-1.37 20.985 5.417 6.173 14.812 6.786 20.985 1.37l19.644-17.246c6.173-5.41 6.791-14.8 1.381-20.973a14.863 14.863 0 00-11.199-5.067z"></path>
    <path d="M199.667 416.942c-10.173.018-18.434-8.215-18.452-18.388a18.42 18.42 0 016.279-13.884l19.651-17.246c7.748-6.414 19.154-5.672 26.004 1.693 6.714 7.651 5.956 19.295-1.693 26.011l-19.644 17.246a18.332 18.332 0 01-12.145 4.568zm19.622-46.956a11.273 11.273 0 00-7.478 2.76l-19.651 17.246c-4.698 4.126-5.161 11.279-1.035 15.976 4.126 4.698 11.279 5.161 15.976 1.035l19.651-17.225c4.696-4.115 5.166-11.258 1.051-15.953a11.309 11.309 0 00-8.521-3.854zM44.004 93.793L4.062 268.046l31.931 17.943 82.63-134.41z"></path>
    <path d="M37.231 290.763L0 269.846 41.77 87.568l81.549 63.143zM8.125 266.246l26.63 14.941 79.172-128.776-67.703-52.393zm111.523 42.767c6.171-5.42 6.782-14.815 1.366-20.988l-.256-.292a14.756 14.756 0 00-10.202-5.023h-.989a14.76 14.76 0 00-9.79 3.693l-23.856 20.889c-6.171 5.42-6.782 14.815-1.366 20.988 5.309 6.317 14.734 7.133 21.051 1.823l.194-.166 1.807-1.587 18.157-15.937z"></path>
    <path d="M86.152 337.172c-.455 0-.918 0-1.387-.05a18.912 18.912 0 01-12.849-6.481c-6.715-7.647-5.96-19.289 1.686-26.004l23.827-20.91c7.647-6.706 19.28-5.951 25.997 1.686a18.539 18.539 0 014.795 13.653 18.29 18.29 0 01-6.225 12.65l-23.82 20.91a18.103 18.103 0 01-12.024 4.546zm23.414-50.912a11.272 11.272 0 00-7.442 2.846l-23.827 20.91c-4.696 4.121-5.161 11.269-1.04 15.964l.001.001a11.828 11.828 0 008.025 4.084 11.05 11.05 0 008.189-2.746l23.82-20.91c4.692-4.124 5.157-11.269 1.039-15.965a11.459 11.459 0 00-8.018-4.119zm93.189 64.381a14.765 14.765 0 00-3.664-10.779l-.213-.242a14.75 14.75 0 00-10.181-4.98h-.989a14.755 14.755 0 00-9.79 3.693l-2.334 2.049-24.105 21.159-6.403 5.592c-6.183 5.595-6.659 15.142-1.065 21.324a15.095 15.095 0 0010.115 4.929 14.717 14.717 0 0010.779-3.664l32.82-28.807a14.777 14.777 0 005.03-10.274z"></path>
    <path d="M155.115 396.936c-.406 0-.804 0-1.209-.036-10.248-.634-18.041-9.456-17.406-19.704a18.59 18.59 0 016.236-12.775l32.792-28.843a18.59 18.59 0 0113.347-4.539 18.261 18.261 0 0112.629 6.204 18.5 18.5 0 014.781 13.632 18.32 18.32 0 01-6.211 12.621l-32.82 28.807a18.298 18.298 0 01-12.139 4.633zm22.767-53.937l-30.458 26.737c-4.698 4.12-5.175 11.264-1.067 15.972a11.477 11.477 0 007.976 4.063 11.197 11.197 0 008.225-2.796l32.82-28.807c4.695-4.116 5.165-11.258 1.049-15.954l-.01-.012a11.386 11.386 0 00-7.983-4.07h-.754a11.149 11.149 0 00-7.442 2.846z"></path>
    <path d="M399.398 303.122l-115.785-94.348c-44.339 23.543-75.736 11.426-90.748 1.843-7.825-5.106-10.029-15.59-4.923-23.415a16.913 16.913 0 016.346-5.755l38.59-20.497a58.095 58.095 0 00-2.846-.363 746.768 746.768 0 01-105.248 9.064L57.323 279.373l15.04 11.462 17.68-15.524c12.275-10.776 30.962-9.561 41.738 2.714l.004.004.256.292a29.33 29.33 0 016.802 14.315 29 29 0 0118.271-4.98 29.373 29.373 0 0120.305 10.003l.832.953a29.373 29.373 0 017.278 21.415v.043a29.835 29.835 0 014.077-.135 29.383 29.383 0 0120.305 10.003l-5.315 5.094 5.528-4.852a29.387 29.387 0 017.293 21.429c0 .1-.043.192-.05.292 16.199-1.153 30.265 11.045 31.418 27.244.096 1.352.099 2.709.008 4.061a29.294 29.294 0 01-4.895 14.229l31.724 18.306c6.955 3.944 15.787 1.604 19.878-5.265 3.88-6.556 1.988-15-4.319-19.274l-50.514-35.004c-.043 0-.064-.078-.1-.107l-3.401-2.355a7.356 7.356 0 01-1.682-10.267 7.356 7.356 0 0110.056-1.828l71.247 49.355c6.572 4.555 15.592 2.92 20.147-3.652l.009-.012c4.471-6.535 2.889-15.445-3.557-20.042l-70.898-50.287c-.043 0-.057-.078-.1-.107a7.363 7.363 0 018.538-11.996l79.485 56.391c6.952 4.909 16.568 3.253 21.477-3.7 4.752-6.729 3.37-16.006-3.136-21.059l-85.526-61.627a7.356 7.356 0 01-2.037-10.202 7.356 7.356 0 0110.575-1.771l5.848 4.169h.078l79.265 57.11c.149.107.256.242.398.349l1.309.939c.249.172.487.359.711.562l1.423.975c6.625 4.747 15.807 3.478 20.896-2.889a15.086 15.086 0 002.64-13.632 14.733 14.733 0 00-4.934-7.393z"></path>
    <path d="M282.83 421.24a17.903 17.903 0 01-8.957-2.398l-35.026-20.199 2.134-3.13c7.907-11.928 4.646-28.007-7.282-35.914a25.908 25.908 0 00-12.689-4.263 17.59 17.59 0 00-2.647.071l-4.774.299.277-4.048a25.984 25.984 0 00-4.198-16.3L207 337.706l-4.81-5.236 2.704-2.59a25.831 25.831 0 00-15.467-6.403 23.906 23.906 0 00-3.109.1l-3.821.285-.477-4.212v-.15a25.976 25.976 0 00-6.403-18.548l-.84-.96c-8.565-9.832-23.125-11.713-33.909-4.383l-4.532 3.045-.953-5.379c-2.417-14.221-15.905-23.789-30.126-21.371A26.129 26.129 0 0092.431 278L72.56 295.445l-19.957-15.19 70.158-114.12 1.914-.057a745.756 745.756 0 00104.679-9l.498-.1.505.043c.939.085 1.978.228 3.052.384l10.672 1.601-48.124 25.556c-6.556 3.387-9.124 11.448-5.737 18.004a13.367 13.367 0 004.577 5.062c14.123 9.014 44.261 20.761 87.148-1.999l2.085-1.11 117.606 95.828a18.315 18.315 0 016.069 9.199 18.6 18.6 0 01-3.244 16.819c-6.284 7.853-17.615 9.416-25.791 3.557l-3.991-2.981-84.978-61.186a3.785 3.785 0 00-5.282.867l-.011.016a3.793 3.793 0 00.87 5.292l.012.009 85.54 61.677c8.293 6.401 9.827 18.312 3.426 26.605-6.195 8.027-17.608 9.761-25.908 3.939l-79.507-56.363a3.808 3.808 0 00-2.846-.647 3.8 3.8 0 00-1.565 6.845l71.019 50.408c8.024 5.733 9.982 16.833 4.404 24.965-5.664 8.194-16.898 10.245-25.092 4.581l-.009-.006-71.232-49.362a3.799 3.799 0 10-4.318 6.247l54.029 37.466c8.216 5.625 10.316 16.845 4.691 25.061a18.03 18.03 0 01-10.169 7.218 18.604 18.604 0 01-4.923.667zm-34.022-25.08l28.622 16.52c5.336 2.887 12.002.903 14.889-4.433a10.984 10.984 0 00-3.136-14.065l-40.376-28.018a32.906 32.906 0 013.557 17.267 32.052 32.052 0 01-3.556 12.729zm-7.413-59.357a10.838 10.838 0 016.19 1.928l71.232 49.355c4.961 3.429 11.763 2.19 15.197-2.768 3.375-4.927 2.185-11.649-2.675-15.119L259.935 319.5a10.914 10.914 0 0113.027-17.502l79.507 56.391c5.368 3.747 12.757 2.432 16.504-2.936a11.853 11.853 0 00-2.395-16.103l-85.433-61.563c-4.902-3.505-6.034-10.32-2.529-15.222s10.32-6.034 15.222-2.529l5.934 4.205 80.965 58.405c.364.262.711.547 1.039.854l1.003.655c5.068 3.672 12.125 2.734 16.058-2.134a11.556 11.556 0 002.035-10.444 11.237 11.237 0 00-3.707-5.692L283.18 213.01c-44.958 22.98-77.009 10.331-92.228.605-9.487-6.155-12.188-18.835-6.033-28.322a20.47 20.47 0 017.734-7.024l21.814-11.583c-22.184 3.01-52.471 5.251-87.639 6.403L62.083 278.455l10.181 7.748L87.767 272.6c13.747-12.071 34.678-10.712 46.749 3.035l.009.01a33.576 33.576 0 016.674 11.547 32.075 32.075 0 0116.214-3.152 32.92 32.92 0 0122.767 11.213l.84.96a32.846 32.846 0 018.175 20.085h.711a32.913 32.913 0 0120.483 8.943l.114-.1 1.928 2.206.206.228 2.241 2.554-.1.1a32.81 32.81 0 016.268 17.965h.434c3.16.206 6.275.863 9.249 1.949-1.368-5.858 2.273-11.716 8.131-13.084.833-.194 1.686-.29 2.541-.285zM462.149 91.146l-74.605 57.786 69.013 112.249c.454.235.881.519 1.274.847a7.227 7.227 0 012.021 4.511l10.338 16.812 31.902-17.95z"></path>
    <path d="M468.922 288.124l-12.557-20.433-.078-.825a3.696 3.696 0 00-.996-2.334l-1.366-.811-.42-.711-70.685-114.939 81.563-63.15 41.777 182.278zm-5.691-22.81l8.153 13.255 26.63-14.941-38.085-166.263-67.696 52.421 66.878 108.777c.441.264.849.579 1.217.939a10.596 10.596 0 012.924 5.813zm-94.846-96.454a65.57 65.57 0 01-45.463 1.651l-39.166-12.714a21.34 21.34 0 00-16.321 1.423l-13.276 7.051c-.142.071-.263.157-.413.221l-52.606 27.947a2.233 2.233 0 00-1.266 1.935 2.022 2.022 0 00.946 1.871c15.474 9.875 41.977 17.075 79.919-4.696a7.371 7.371 0 018.31.676l119.584 97.471a28.388 28.388 0 014.482 4.632l29.569-29.59-63.015-102.494z"></path>
    <path d="M412.809 301.649l-2.476-3.138a24.458 24.458 0 00-3.913-4.055l-119.612-97.443a3.836 3.836 0 00-4.269-.349c-39.494 22.682-67.262 15.026-83.605 4.61a5.558 5.558 0 01-2.583-5.051 5.76 5.76 0 013.166-4.909l66.273-35.196a24.9 24.9 0 0119.082-1.679l39.152 12.693a62.018 62.018 0 0043.008-1.551l14.108-5.777 66.067 107.432zM284.381 189.037a10.96 10.96 0 016.908 2.433l119.591 97.471a27.092 27.092 0 012.398 2.184l24.901-24.901-59.956-97.55-8.481 3.472a69.127 69.127 0 01-47.932 1.736l-39.131-12.707a17.786 17.786 0 00-13.575 1.21l-64.267 34.151c14.891 8.651 39.387 13.923 74.156-6.047a10.898 10.898 0 015.388-1.452z"></path>
  </symbol>
  <symbol xmlns="http://www.w3.org/2000/svg" viewBox="0 0 510 510" id="happy-face">
    <path d="M344.25 229.5c20.4 0 38.25-17.85 38.25-38.25S364.65 153 344.25 153 306 170.85 306 191.25s17.85 38.25 38.25 38.25zm-178.5 0c20.4 0 38.25-17.85 38.25-38.25S186.15 153 165.75 153s-38.25 17.85-38.25 38.25 17.85 38.25 38.25 38.25zM255 408c66.3 0 122.4-43.35 145.35-102h-290.7C132.6 364.65 188.7 408 255 408zm0-408C114.75 0 0 114.75 0 255s114.75 255 255 255 255-114.75 255-255S395.25 0 255 0zm0 459c-112.2 0-204-91.8-204-204S142.8 51 255 51s204 91.8 204 204-91.8 204-204 204z"></path>
  </symbol>
  <symbol xmlns="http://www.w3.org/2000/svg" viewBox="0 0 290.262 290.262" id="hd-sign">
    <path d="M278.743 33.612H11.519C5.157 33.612 0 38.77 0 45.131v200c0 6.361 5.157 11.519 11.519 11.519h267.225c6.361 0 11.519-5.157 11.519-11.519v-200c-.001-6.361-5.159-11.519-11.52-11.519zm-174.68 156.519l9.989-34.973H76.771l-9.993 34.973H43.896l25.709-90h22.888L81.914 137.16h37.279l10.579-37.029h22.89l-25.715 90h-22.884zm140.267-45c-7.604 26.613-32.658 45-61.585 45h-37.796l16.986-59.461h22.882l-11.768 41.199h16.327c14.014 0 27.128-10.797 31.644-26.607 4.555-15.945-2.865-26.871-17.393-26.871h-38.188l5.217-18.26h38.7c28.285 0 42.609 18.26 34.974 45z"></path>
  </symbol>
  <symbol xmlns="http://www.w3.org/2000/svg" viewBox="0 0 277.446 277.446" id="movie-clapper-open">
    <path d="M59.488 117.299a26.336 26.336 0 00-4.273-11.556l202.992-67.776-10.655-31.916A8.855 8.855 0 00236.351.457L15.54 74.182c-4.635 1.547-7.143 6.563-5.594 11.201l5.225 15.647c-5.216 4.843-8.488 11.752-8.488 19.415 0 9.924 5.486 18.586 13.582 23.127v125.02c0 4.891 3.967 8.853 8.854 8.853h232.793a8.855 8.855 0 008.852-8.853V117.299H59.488zm129.381-90.575l26.875-8.973-6.467 26.14-26.875 8.973 6.467-26.14zM122.47 48.893l26.877-8.973-6.467 26.139-26.875 8.974 6.465-26.14zm-89.289 85.053c-7.442 0-13.498-6.056-13.498-13.5s6.056-13.5 13.498-13.5c7.444 0 13.5 6.056 13.5 13.5s-6.056 13.5-13.5 13.5zm22.893-62.884l26.877-8.973-6.467 26.14-26.877 8.974 6.467-26.141zm26.402 76.13H54.142l14.412-22.746h28.334l-14.412 22.746zm56.078-22.746h28.334l-14.412 22.746h-28.334l14.412-22.746zm-6.955 109.926v-60l47.783 30-47.783 30zm90.877-87.18h-28.334l14.412-22.746h28.334l-14.412 22.746z"></path>
  </symbol>
  <symbol xmlns="http://www.w3.org/2000/svg" viewBox="0 0 443.294 443.294" id="time">
    <path d="M221.647 0C99.433 0 0 99.433 0 221.647s99.433 221.647 221.647 221.647 221.647-99.433 221.647-221.647S343.861 0 221.647 0zm0 415.588c-106.941 0-193.941-87-193.941-193.941s87-193.941 193.941-193.941 193.941 87 193.941 193.941-87 193.941-193.941 193.941z"></path>
    <path d="M235.5 83.118h-27.706v144.265l87.176 87.176 19.589-19.589-79.059-79.059z"></path>
  </symbol>
  <symbol aria-hidden="true" data-prefix="fab" data-icon="twitter" xmlns="http://www.w3.org/2000/svg" viewBox="0 0 512 512" id="twitter">
    <path  d="M459.37 151.716c.325 4.548.325 9.097.325 13.645 0 138.72-105.583 298.558-298.558 298.558-59.452 0-114.68-17.219-161.137-47.106 8.447.974 16.568 1.299 25.34 1.299 49.055 0 94.213-16.568 130.274-44.832-46.132-.975-84.792-31.188-98.112-72.772 6.498.974 12.995 1.624 19.818 1.624 9.421 0 18.843-1.3 27.614-3.573-48.081-9.747-84.143-51.98-84.143-102.985v-1.299c13.969 7.797 30.214 12.67 47.431 13.319-28.264-18.843-46.781-51.005-46.781-87.391 0-19.492 5.197-37.36 14.294-52.954 51.655 63.675 129.3 105.258 216.365 109.807-1.624-7.797-2.599-15.918-2.599-24.04 0-57.828 46.782-104.934 104.934-104.934 30.213 0 57.502 12.67 76.67 33.137 23.715-4.548 46.456-13.32 66.599-25.34-7.798 24.366-24.366 44.833-46.132 57.827 21.117-2.273 41.584-8.122 60.426-16.243-14.292 20.791-32.161 39.308-52.628 54.253z"></path>
  </symbol>
  <symbol xmlns="http://www.w3.org/2000/svg" viewBox="0 0 290.262 290.262" id="3d-sign">
    <path d="M278.743 33.612H11.519C5.157 33.612 0 38.77 0 45.131v200c0 6.361 5.157 11.519 11.519 11.519h267.225c6.361 0 11.519-5.157 11.519-11.519v-200c-.001-6.361-5.159-11.519-11.52-11.519zM127.045 162.625c-5.964 18.607-24.728 31.662-47.36 31.662-13.331 0-25.842-4.721-32.46-11.807l16.005-18.744c4.732 7.779 11.771 11.803 20.52 11.803 9.718 0 16.508-4.721 19.046-12.633 2.628-8.193-1.495-12.225-11.218-12.225H76.026l4.229-13.188 28.869-22.496H73.717l6.054-18.883h64.152l-4.498 14.021-32.398 25.273 4.357.695c13.455 2.223 20.467 11.53 15.661 26.522zM240.3 144.576c-9.213 28.74-36.963 48.596-68.205 48.596H131.27l20.67-64.473h24.715l-14.346 44.756h17.633c15.137 0 29.707-11.664 35.182-28.742 5.518-17.217-2.084-29.018-17.776-29.018l-41.233-.014 6.314-19.709h41.797c30.547.001 45.332 19.723 36.074 48.604z"></path>
  </symbol>
  <symbol xmlns="http://www.w3.org/2000/svg" viewBox="0 0 290.262 290.262" id="4k-fullhd">
    <path d="M278.743 29.29H11.519C5.157 29.29 0 34.447 0 40.809v208.645c0 6.361 5.157 11.519 11.519 11.519h267.225c6.361 0 11.519-5.157 11.519-11.519V40.809c-.001-6.362-5.159-11.519-11.52-11.519zM56.563 185.959H33.751v15.375H54.19v4.813H33.751v18.748h-4.996v-43.748h27.809v4.812zm43.127 20.936c0 11.375-6.875 18.252-18.313 18.252-11.5 0-18.436-6.877-18.436-18.252v-25.748h5v25.748c0 8.5 5.122 13.439 13.436 13.439 8.313 0 13.313-4.939 13.313-13.439v-25.748h5v25.748zm36.44 18h-24.188v-43.748h5v39.002h19.188v4.746zm32.314 0h-24.188v-43.748h4.998v39.002h19.189v4.746zm46.249 0h-11.126v-16.998h-18.121v16.998h-11.127v-43.748h11.127v18h18.121v-18h11.126v43.748zm27.129 0h-18.376v-25.201h11.125v16.33h7.938c6.812 0 11.688-5.254 11.688-12.939 0-7.754-5.126-13.063-12.188-13.063h-18.563v-8.875h18.813c13.75 0 23.248 8.875 23.248 21.873 0 12.937-9.625 21.875-23.685 21.875zm25.403-66.96H23.037V52.327h244.188v105.608z"></path>
    <path d="M106.752 143.336h19.13V125.48h11.013v-15.65h-11.013V92.439h-19.13v17.391H89.594l24.114-47.65H93.883l-25.622 49.506v13.794h38.491zm60.523-19.941l10.782-11.942 21.448 31.883h24.694l-32.114-47.535 30.144-33.621h-23.883l-31.071 35.129V62.18h-20.637v81.156h20.637z"></path>
  </symbol>
  <symbol xmlns="http://www.w3.org/2000/svg" viewBox="0 0 290.262 290.262" id="1080p-full-hd">
    <path d="M278.743 29.29H11.519C5.157 29.29 0 34.447 0 40.809v208.645c0 6.361 5.157 11.519 11.519 11.519h267.225c6.361 0 11.519-5.157 11.519-11.519V40.809c-.001-6.362-5.159-11.519-11.52-11.519zM56.563 185.959H33.751v15.375H54.19v4.813H33.751v18.748h-4.996v-43.748h27.809v4.812zm43.127 20.936c0 11.375-6.875 18.252-18.313 18.252-11.5 0-18.436-6.877-18.436-18.252v-25.748h5v25.748c0 8.5 5.122 13.439 13.436 13.439 8.313 0 13.313-4.939 13.313-13.439v-25.748h5v25.748zm36.44 18h-24.188v-43.748h5v39.002h19.188v4.746zm32.314 0h-24.187v-43.748h4.998v39.002h19.189v4.746zm46.249 0h-11.126v-16.998h-18.121v16.998h-11.127v-43.748h11.127v18h18.121v-18h11.126v43.748zm27.129 0h-18.376v-25.201h11.125v16.33h7.939c6.811 0 11.688-5.254 11.688-12.939 0-7.754-5.126-13.063-12.189-13.063h-18.563v-8.875h18.813c13.75 0 23.248 8.875 23.248 21.873 0 12.937-9.625 21.875-23.685 21.875zm25.403-66.96H23.037V52.327h244.188v105.608z"></path>
    <path d="M53.415 128.666h13.177V76.775H43.866v10.588h9.549zm46.486.371c14.656 0 22.873-9.404 22.873-26.354 0-16.877-8.217-26.279-22.873-26.279-14.805 0-23.021 9.402-23.021 26.279 0 16.95 8.217 26.354 23.021 26.354zm0-43.008c6.514 0 9.4 4.813 9.4 16.654s-2.887 16.729-9.4 16.729c-6.664 0-9.475-4.887-9.475-16.729s2.811-16.654 9.475-16.654zm28.5 28.203c0 9.178 8.29 15.025 21.246 15.025 12.951 0 21.243-5.922 21.243-15.25 0-5.771-3.552-10.732-9.253-13.102 4.072-2.221 6.514-6.217 6.514-10.734 0-8.512-7.18-13.914-18.58-13.914-11.25 0-18.505 5.258-18.505 13.549 0 4.512 2.814 8.656 7.18 11.1-5.995 2.369-9.845 7.401-9.845 13.326zm21.246-29.314c4.811 0 7.475 2.148 7.475 5.994 0 3.703-2.664 5.777-7.475 5.777-4.813 0-7.477-2.074-7.477-5.777 0-3.846 2.665-5.994 7.477-5.994zm0 21.246c5.697 0 8.881 2.441 8.881 6.736 0 4.441-3.184 6.811-8.881 6.811-5.701 0-8.809-2.445-8.809-6.811.001-4.295 3.108-6.736 8.809-6.736zm49.819 22.873c14.655 0 22.872-9.404 22.872-26.354 0-16.877-8.217-26.279-22.872-26.279-14.805 0-23.023 9.402-23.023 26.279 0 16.95 8.218 26.354 23.023 26.354zm0-43.008c6.514 0 9.398 4.813 9.398 16.654s-2.885 16.729-9.398 16.729c-6.662 0-9.475-4.887-9.475-16.729s2.813-16.654 9.475-16.654zm35.482 35.09h4.865c6.857 0 10.803-3.641 10.803-9.924 0-5.973-3.945-9.346-10.803-9.346h-11.682v26.816h6.816v-7.546zm0-13.906h4.521c2.987 0 4.712 1.414 4.712 4.217 0 2.832-1.725 4.326-4.712 4.326h-4.521v-8.543z"></path>
  </symbol>
</svg>