<svg width="0" height="0" class="hidden">
  <symbol xmlns="http://www.w3.org/2000/svg" viewBox="0 0 512 512" id="settings">
    <path d="M272.066 512h-32.133c-25.989 0-47.134-21.144-47.134-47.133v-10.871a206.698 206.698 0 01-32.097-13.323l-7.704 7.704c-18.659 18.682-48.548 18.134-66.665-.007l-22.711-22.71c-18.149-18.129-18.671-48.008.006-66.665l7.698-7.698A206.714 206.714 0 0158.003 319.2h-10.87C21.145 319.2 0 298.056 0 272.067v-32.134C0 213.944 21.145 192.8 47.134 192.8h10.87a206.755 206.755 0 0113.323-32.097L63.623 153c-18.666-18.646-18.151-48.528.006-66.665l22.713-22.712c18.159-18.184 48.041-18.638 66.664.006l7.697 7.697A206.893 206.893 0 01192.8 58.003v-10.87C192.8 21.144 213.944 0 239.934 0h32.133C298.056 0 319.2 21.144 319.2 47.133v10.871a206.698 206.698 0 0132.097 13.323l7.704-7.704c18.659-18.682 48.548-18.134 66.665.007l22.711 22.71c18.149 18.129 18.671 48.008-.006 66.665l-7.698 7.698a206.714 206.714 0 0113.323 32.097h10.87c25.989 0 47.134 21.144 47.134 47.133v32.134c0 25.989-21.145 47.133-47.134 47.133h-10.87a206.755 206.755 0 01-13.323 32.097l7.704 7.704c18.666 18.646 18.151 48.528-.006 66.665l-22.713 22.712c-18.159 18.184-48.041 18.638-66.664-.006l-7.697-7.697a206.893 206.893 0 01-32.097 13.323v10.871c0 25.987-21.144 47.131-47.134 47.131zM165.717 409.17a176.812 176.812 0 0045.831 19.025 14.999 14.999 0 0111.252 14.524v22.148c0 9.447 7.687 17.133 17.134 17.133h32.133c9.447 0 17.134-7.686 17.134-17.133v-22.148a14.999 14.999 0 0111.252-14.524 176.812 176.812 0 0045.831-19.025 15 15 0 0118.243 2.305l15.688 15.689c6.764 6.772 17.626 6.615 24.224.007l22.727-22.726c6.582-6.574 6.802-17.438.006-24.225l-15.695-15.695a15 15 0 01-2.305-18.242 176.78 176.78 0 0019.024-45.831 15 15 0 0114.524-11.251h22.147c9.447 0 17.134-7.686 17.134-17.133v-32.134c0-9.447-7.687-17.133-17.134-17.133H442.72a15 15 0 01-14.524-11.251 176.815 176.815 0 00-19.024-45.831 15 15 0 012.305-18.242l15.689-15.689c6.782-6.774 6.605-17.634.006-24.225l-22.725-22.725c-6.587-6.596-17.451-6.789-24.225-.006l-15.694 15.695a15 15 0 01-18.243 2.305 176.812 176.812 0 00-45.831-19.025 14.999 14.999 0 01-11.252-14.524v-22.15c0-9.447-7.687-17.133-17.134-17.133h-32.133c-9.447 0-17.134 7.686-17.134 17.133v22.148a14.999 14.999 0 01-11.252 14.524 176.812 176.812 0 00-45.831 19.025 15.002 15.002 0 01-18.243-2.305l-15.688-15.689c-6.764-6.772-17.627-6.615-24.224-.007l-22.727 22.726c-6.582 6.574-6.802 17.437-.006 24.225l15.695 15.695a15 15 0 012.305 18.242 176.78 176.78 0 00-19.024 45.831 15 15 0 01-14.524 11.251H47.134C37.687 222.8 30 230.486 30 239.933v32.134c0 9.447 7.687 17.133 17.134 17.133h22.147a15 15 0 0114.524 11.251 176.815 176.815 0 0019.024 45.831 15 15 0 01-2.305 18.242l-15.689 15.689c-6.782 6.774-6.605 17.634-.006 24.225l22.725 22.725c6.587 6.596 17.451 6.789 24.225.006l15.694-15.695c3.568-3.567 10.991-6.594 18.244-2.304z"></path>
    <path d="M256 367.4c-61.427 0-111.4-49.974-111.4-111.4S194.573 144.6 256 144.6 367.4 194.574 367.4 256 317.427 367.4 256 367.4zm0-192.8c-44.885 0-81.4 36.516-81.4 81.4s36.516 81.4 81.4 81.4 81.4-36.516 81.4-81.4-36.515-81.4-81.4-81.4z"></path>
  </symbol>
  <symbol aria-hidden="true" data-prefix="fas" data-icon="chevron-up" xmlns="http://www.w3.org/2000/svg" viewBox="0 0 448 512" id="chevron">
    <path d="M240.971 130.524l194.343 194.343c9.373 9.373 9.373 24.569 0 33.941l-22.667 22.667c-9.357 9.357-24.522 9.375-33.901.04L224 227.495 69.255 381.516c-9.379 9.335-24.544 9.317-33.901-.04l-22.667-22.667c-9.373-9.373-9.373-24.569 0-33.941L207.03 130.525c9.372-9.373 24.568-9.373 33.941-.001z"></path>
  </symbol>
  <symbol xmlns="http://www.w3.org/2000/svg" viewBox="0 0 546.773 546.773" id="facebook">
    <path d="M382.1 0h-56.953c-43.574 0-74.872 10.343-93.893 31.022-19.027 20.686-28.532 51.151-28.532 91.408v38.373c0 10.141-8.219 18.36-18.36 18.36H164.68c-10.141 0-18.36 8.219-18.36 18.36v57.503c0 10.141 8.219 18.36 18.36 18.36h19.682c10.141 0 18.36 8.219 18.36 18.36v236.666c0 10.141 8.219 18.36 18.36 18.36h76.414c10.141 0 18.36-8.22 18.36-18.36V291.747c0-10.142 8.22-18.36 18.36-18.36h38.592c10.142 0 19.224-8.176 20.289-18.256l6.095-57.712c1.065-10.085-6.291-18.256-16.433-18.256H334.21c-10.141 0-18.36-8.219-18.36-18.36v-28.752c0-7.075.331-12.552.997-16.426.661-3.868 2.154-7.681 4.48-11.445 2.319-3.757 6.083-6.358 11.279-7.797 5.195-1.438 12.111-2.16 20.734-2.16h28.752c10.141 0 18.359-8.219 18.359-18.36V18.36C400.459 8.219 392.24 0 382.1 0z"></path>
  </symbol>
  <symbol aria-hidden="true" data-prefix="fab" data-icon="google-plus-g" xmlns="http://www.w3.org/2000/svg" viewBox="0 0 640 512" id="google">
    <path d="M386.061 228.496c1.834 9.692 3.143 19.384 3.143 31.956C389.204 370.205 315.599 448 204.8 448c-106.084 0-192-85.915-192-192s85.916-192 192-192c51.864 0 95.083 18.859 128.611 50.292l-52.126 50.03c-14.145-13.621-39.028-29.599-76.485-29.599-65.484 0-118.92 54.221-118.92 121.277 0 67.056 53.436 121.277 118.92 121.277 75.961 0 104.513-54.745 108.965-82.773H204.8v-66.009h181.261zm185.406 6.437V179.2h-56.001v55.733h-55.733v56.001h55.733v55.733h56.001v-55.733H627.2v-56.001h-55.733z"></path>
  </symbol>
  <symbol aria-hidden="true" data-prefix="fab" data-icon="instagram" xmlns="http://www.w3.org/2000/svg" viewBox="0 0 448 512" id="instagram">
    <path d="M224.1 141c-63.6 0-114.9 51.3-114.9 114.9s51.3 114.9 114.9 114.9S339 319.5 339 255.9 287.7 141 224.1 141zm0 189.6c-41.1 0-74.7-33.5-74.7-74.7s33.5-74.7 74.7-74.7 74.7 33.5 74.7 74.7-33.6 74.7-74.7 74.7zm146.4-194.3c0 14.9-12 26.8-26.8 26.8-14.9 0-26.8-12-26.8-26.8s12-26.8 26.8-26.8 26.8 12 26.8 26.8zm76.1 27.2c-1.7-35.9-9.9-67.7-36.2-93.9-26.2-26.2-58-34.4-93.9-36.2-37-2.1-147.9-2.1-184.9 0-35.8 1.7-67.6 9.9-93.9 36.1s-34.4 58-36.2 93.9c-2.1 37-2.1 147.9 0 184.9 1.7 35.9 9.9 67.7 36.2 93.9s58 34.4 93.9 36.2c37 2.1 147.9 2.1 184.9 0 35.9-1.7 67.7-9.9 93.9-36.2 26.2-26.2 34.4-58 36.2-93.9 2.1-37 2.1-147.8 0-184.8zM398.8 388c-7.8 19.6-22.9 34.7-42.6 42.6-29.5 11.7-99.5 9-132.1 9s-102.7 2.6-132.1-9c-19.6-7.8-34.7-22.9-42.6-42.6-11.7-29.5-9-99.5-9-132.1s-2.6-102.7 9-132.1c7.8-19.6 22.9-34.7 42.6-42.6 29.5-11.7 99.5-9 132.1-9s102.7-2.6 132.1 9c19.6 7.8 34.7 22.9 42.6 42.6 11.7 29.5 9 99.5 9 132.1s2.7 102.7-9 132.1z"></path>
  </symbol>
  <symbol xmlns="http://www.w3.org/2000/svg" viewBox="0 0 357 357" id="plus">
    <path d="M357 204H204v153h-51V204H0v-51h153V0h51v153h153v51z"></path>
  </symbol>
  <symbol aria-hidden="true" data-prefix="fab" data-icon="twitter" xmlns="http://www.w3.org/2000/svg" viewBox="0 0 512 512" id="twitter">
    <path d="M459.37 151.716c.325 4.548.325 9.097.325 13.645 0 138.72-105.583 298.558-298.558 298.558-59.452 0-114.68-17.219-161.137-47.106 8.447.974 16.568 1.299 25.34 1.299 49.055 0 94.213-16.568 130.274-44.832-46.132-.975-84.792-31.188-98.112-72.772 6.498.974 12.995 1.624 19.818 1.624 9.421 0 18.843-1.3 27.614-3.573-48.081-9.747-84.143-51.98-84.143-102.985v-1.299c13.969 7.797 30.214 12.67 47.431 13.319-28.264-18.843-46.781-51.005-46.781-87.391 0-19.492 5.197-37.36 14.294-52.954 51.655 63.675 129.3 105.258 216.365 109.807-1.624-7.797-2.599-15.918-2.599-24.04 0-57.828 46.782-104.934 104.934-104.934 30.213 0 57.502 12.67 76.67 33.137 23.715-4.548 46.456-13.32 66.599-25.34-7.798 24.366-24.366 44.833-46.132 57.827 21.117-2.273 41.584-8.122 60.426-16.243-14.292 20.791-32.161 39.308-52.628 54.253z"></path>
  </symbol>
</svg>